<?xml version="1.0" encoding="utf-8"?>
<!-- Generator: Adobe Illustrator 26.0.1, SVG Export Plug-In . SVG Version: 6.00 Build 0)  -->
<svg version="1.1" id="Layer_1" xmlns="http://www.w3.org/2000/svg" xmlns:xlink="http://www.w3.org/1999/xlink" x="0px" y="0px"
	 viewBox="0 0 150.5 43.8" style="enable-background:new 0 0 150.5 43.8;" xml:space="preserve">
<style type="text/css">
	.st0{fill:#231F20;}
</style>
<path class="st0" d="M25.5,1.6c1.4,0.3,2.6,0.9,3.5,1.6c1.1,0.8,1.8,1.6,2.3,2.6C31.9,6.9,32.1,8,32,9.2c0,1.2-0.2,2.3-0.7,3.4
	c-0.5,1-1.2,1.8-2.2,2.6c-1.2,0.9-3.5,1-3.5,1.6c0.1,0.2,0.2,0.4,0.6,0.5h-5.1H8.2v12.2H4.8V1.1h16.3C22.6,1.1,24.2,1.2,25.5,1.6z
	 M20.4,15c2.3,0,4.4-0.5,5.9-1.4s2.3-2.4,2.3-4.4s-0.7-3.4-2.3-4.4s-3.7-1.5-5.9-1.4H8.2V15H20.4z"/>
<path class="st0" d="M40.8,27.2c1,0,8.2,0.4,12.7-0.6c1.1-0.2,2.2-0.5,3.1-1c1-0.5,1.9-1.1,2.4-1.7c0.6-0.8,1-1.7,1-2.5
	c0-0.7-0.2-1.4-0.7-2c-0.4-0.5-1.1-1.1-1.8-1.4c-0.7-0.4-1.5-0.7-2.4-1c-0.8-0.2-1.7-0.4-2.6-0.6l-8-1.5c-1.1-0.2-2.1-0.5-3.1-0.8
	c-1-0.3-1.9-0.7-2.6-1.2C38,12.3,37.4,11.7,37,11c-0.5-0.9-0.7-1.8-0.6-2.7c0-0.8,0.2-1.6,0.5-2.4c0.3-0.9,1-1.8,1.9-2.5
	c1-0.8,2.3-1.5,3.8-2c1.9-0.6,4-0.9,6.2-0.8c1.8,0,3.5,0.2,5.1,0.5c1.6,0.3,3.1,0.9,4.3,1.6c1.3,0.8,2.3,1.7,2.9,2.6
	c0.7,1.2,1.1,2.4,1.1,3.7h-3.4c0-1-0.3-1.9-1-2.7c-0.5-0.7-1.2-1.4-2.2-2c-0.9-0.5-1.9-0.9-3.1-1.2c-1.1-0.3-2.4-0.4-3.6-0.4
	c-1.1,0-2.3,0.1-3.4,0.3c-1.1,0.2-2,0.5-2.9,0.9c-0.9,0.5-1.5,1-2,1.7c-0.6,0.8-0.8,1.7-0.7,2.5c0,0.6,0.2,1.2,0.4,1.7
	c0.5,0.9,1.5,1.6,2.9,2c0.6,0.2,1.4,0.4,2.1,0.5L54,14c1.3,0.2,2.5,0.6,3.6,1c1.1,0.4,2.1,0.8,3,1.4c0.9,0.6,1.6,1.2,2,2
	c0.6,0.9,0.8,1.9,0.7,2.9c0,0.3-0.1,0.7-0.2,1.2c-0.1,0.6-0.3,1.1-0.6,1.6c-0.3,0.6-0.8,1.2-1.4,1.7c-0.6,0.6-1.5,1.2-2.4,1.6
	c-1.1,0.5-2.4,0.9-3.8,1.2c-1.5,0.2-2.8,0.3-5.5,0.4c-0.3,0-1.9,0-4,0c-1.4,0-2.6,0-3.6,0C41.5,28.4,41.2,27.8,40.8,27.2z"/>
<path class="st0" d="M86,1.6v20.8L82.7,27l-0.1-0.1V1.6H86z"/>
<path class="st0" d="M142.6,0.6v24.3h-0.1l-21-24.3h-3.7c0,2,0,4.1,0,6.1c-0.3-0.3-0.5-0.6-0.8-0.9c-1.4-1.3-3.2-2.4-5.3-3.3
	c-2.3-0.8-4.9-1.2-7.4-1.2c-2.6,0-5.2,0.4-7.4,1.2c-2.2,0.8-4,2-5.3,3.3c-1.5,1.4-2.5,3-3.2,4.7c-0.7,1.9-1.1,3.7-1.1,5.6
	c0,1.9,0.3,3.8,1.1,5.6c0.6,1.7,1.7,3.3,3.2,4.7c1.4,1.3,3.2,2.4,5.3,3.3c2.2,0.8,4.8,1.2,7.4,1.2c2.6,0,5.2-0.4,7.4-1.2
	c2.2-0.9,4-2,5.3-3.3c1.5-1.4,2.5-3,3.2-4.7c0.7-1.8,1.1-3.7,1.1-5.6c0-0.2,0-0.4,0-0.5c0,0,0,0,0,0c0-3.6,0-7.1,0-10.6h0.1l21,24.3
	h3.8V0.6H142.6z M114.5,24.8c-1.1,1.1-2.4,2.1-4.2,2.8c-1.8,0.7-4,1.1-6.2,1.1c-2.2,0-4.4-0.3-6.2-1.1c-1.7-0.7-3.2-1.7-4.2-2.8
	c-1.1-1.2-1.9-2.6-2.4-4c-1.1-3-1.1-6.1,0-9.1c0.5-1.4,1.3-2.7,2.4-4c1-1.1,2.4-2.1,4.2-2.8c1.8-0.7,4-1.1,6.2-1.1
	c2.2,0,4.4,0.3,6.2,1.1s3.2,1.7,4.2,2.8c1.1,1.2,1.9,2.6,2.4,4c0.5,1.5,0.8,3,0.8,4.6c0,0,0,0,0,0c0,1.5-0.3,3-0.8,4.6
	C116.5,22.2,115.7,23.6,114.5,24.8z"/>
<path class="st0" d="M83.8,33.8h3.4c0.2,1.5-0.2,3-0.9,4.5c-0.6,1.2-1.6,2.2-3,3.1c-1.3,0.8-2.9,1.4-4.7,1.8
	c-1.9,0.4-3.9,0.6-5.9,0.6c-1.9,0-3.7-0.1-5.4-0.5c-1.4-0.2-2.7-0.7-3.8-1.2c-1-0.4-1.8-1-2.4-1.6c-0.6-0.6-1.1-1.2-1.4-1.8
	c-0.3-0.5-0.5-1.1-0.6-1.7c-0.1-0.5-0.2-1-0.2-1.3c0-1,0.2-2,0.7-3c0.4-0.8,1.1-1.5,2-2.1c0.9-0.6,1.9-1.1,3-1.4
	c1.1-0.4,2.3-0.7,3.6-1l8.8-1.7c0.7-0.1,1.5-0.3,2.1-0.5c0.6-0.2,1.3-0.5,1.8-0.9c0.6-0.4,1-0.8,1.2-1.2c0.3-0.6,0.5-1.2,0.4-1.7
	c0.1-0.9-0.2-1.8-0.7-2.7c-0.4-0.7-1.1-1.2-2-1.7c-0.8-0.4-1.8-0.8-2.9-1c-1.1-0.2-2.3-0.3-3.4-0.3c-1.3,0-2.5,0.1-3.6,0.4
	c-1.1,0.3-2.2,0.7-3.1,1.2c-1,0.6-1.7,1.3-2.2,2c-0.6,0.9-1.1,1.8-1.5,2.7L60.2,23c-0.1-1.3,0.3-2.6,1.1-3.8c0.6-1,1.6-2,2.9-2.8
	c1.2-0.7,2.7-1.3,4.3-1.7c1.6-0.4,3.3-0.5,5.1-0.5c2.2,0,4.3,0.2,6.2,0.9c1.5,0.5,2.8,1.2,3.8,2.1c0.9,0.8,1.5,1.7,1.9,2.6
	c0.3,0.8,0.5,1.6,0.5,2.4c0,1-0.2,1.9-0.6,2.8c-0.4,0.7-1.1,1.4-1.8,2c-0.7,0.5-1.6,1-2.6,1.3s-2,0.6-3.1,0.8l-8.1,1.5
	c-0.9,0.2-1.8,0.4-2.6,0.6c-0.9,0.2-1.7,0.6-2.4,1c-0.7,0.4-1.4,0.9-1.8,1.5c-0.5,0.7-0.7,1.3-0.6,2.1c-0.1,0.9,0.3,1.8,1,2.6
	c0.6,0.7,1.5,1.3,2.4,1.8c0.9,0.4,1.9,0.8,3.1,1c1,0.2,2,0.3,3.1,0.3c1.5,0,3.2-0.1,4.7-0.4c1.4-0.2,2.7-0.7,3.8-1.2
	c1.1-0.7,2-1.4,2.5-2.4C83.5,36.3,83.9,35.1,83.8,33.8z"/>
<path class="st0" d="M32.5,8.2c-0.3-0.6-0.6-1.2-0.9-1.7c-0.1,0.1-0.2,0.2-0.2,0.4c-0.1-0.1-0.2-0.2-0.2-0.4h-1.7v2.3l0.3,0.5
	c-0.2,0.2-0.5,0.6-0.7,1.1c-0.4,0.7-0.6,1.2-0.7,1.5c-0.3,0.6-0.8,1.4-1.9,2.5c-3.2,4.9-6.4,9.7-9.5,14.6c1.2,0,2.5,0,3.7,0l4.4-7
	h4.4h3.9h4.4l4.4,7h3.7C40.8,22.5,36.3,15.6,32.5,8.2z M33.3,20.1h-3.9h-3.3c1.9-2.6,3.7-5.2,5.6-7.8l4.9,7.8H33.3z"/>
</svg>
